<?xml version="1.0" encoding="UTF-8"?>
<svg version="1.1" viewBox="0 0 2048 1141" width="1280" height="1280" xmlns="http://www.w3.org/2000/svg">
<path transform="translate(0)" d="m0 0h2048v1141h-2048z" fill="none"/>
<path transform="translate(667,15)" d="m0 0h10l14 2 16 5 15 8 13 11 9 10 9 15 5 13 3 16 1 242 3 24 6 26 8 21 9 19 10 16 10 13 9 10 16 16 11 9 10 7 19 12 15 8 24 10 24 8 26 6 26 4 25 2h30l31-3 28-5 23-6 28-10 29-14 20-13 12-9 14-12 10-9 11-14 12-16 10-18 10-23 6-21 5-26 1-12 1-241 3-16 5-14 9-15 12-13 12-9 15-8 19-5 9-1h10l14 2 16 5 15 8 11 9 8 8 9 14 6 12 4 15 1 6 1 279 3 22 5 19 8 19 7 13 9 12 9 11 7 7 14 11 15 10 25 12 21 7 22 5 19 3 9 1 35 1 31 2 30 4 29 6 28 8 25 9 25 11 23 12 21 13 18 13 16 13 13 12 19 19 9 11 13 17 10 15 12 21 11 23 9 23 8 28 6 29 3 27 1 21v189l-4 18-7 16-7 10-9 10-10 9-14 8-13 5-15 3h-20l-15-3-13-5-11-6-10-8-10-10-10-15-6-14-3-13-1-8-1-190-3-24-6-21-9-21-9-14-8-10-9-10-11-10-19-13-23-12-22-8-24-6-19-3-31-2-31-1-30-3-30-5-32-8-30-10-26-11-22-11-23-14-17-12-14-11-14-12-24-24-4 2-9 10-14 14-8 7-14 12-20 15-18 12-16 10-9 7-7 10-5 13-1 5-1 18-1 333-4 10-6 8-11 7-7 3-7 1h-370l-13-2-10-5-7-6-6-10-2-6-1-7v-325l-1-19-4-13-6-11-9-9-17-11-16-10-16-12-11-9-14-12-15-14-10-10-5-6-4 2-27 27-11 9-17 13-23 15-22 12-23 11-26 10-30 9-26 6-25 4-30 3-51 2-24 3-22 5-17 5-21 9-18 10-11 8-9 7-11 10-9 11-9 13-10 19-7 21-4 21-1 10-1 192-3 17-5 13-6 11-10 13-10 9-13 8-11 5-15 4-6 1h-20l-14-3-14-5-14-8-12-11-9-10-9-16-4-11-3-17v-197l2-23 4-26 7-30 9-27 10-23 13-25 12-19 13-17 8-10 12-13 21-21 11-9 17-13 20-13 17-10 26-13 28-11 25-8 28-7 37-6 21-2 19-1 34-1 24-3 23-5 16-5 20-8 17-9 16-11 10-9 8-7 13-16 9-15 7-15 7-22 3-17 1-12 1-278 4-17 6-14 8-12 9-10 12-10 17-9 19-5z" fill="#94C745"/>
<path transform="translate(667,15)" d="m0 0h10l14 2 16 5 15 8 13 11 9 10 9 15 5 13 3 16v287l-3 29-5 26-6 24-8 23-11 25-11 21-9 15-13 18-13 16-9 10-23 23-11 9-17 13-23 15-22 12-23 11-26 10-30 9-26 6-25 4-30 3-51 2-24 3-22 5-17 5-21 9-18 10-11 8-9 7-11 10-9 11-9 13-10 19-7 21-4 21-1 10-1 192-3 17-5 13-6 11-10 13-10 9-13 8-11 5-15 4-6 1h-20l-14-3-14-5-14-8-12-11-9-10-9-16-4-11-3-17v-197l2-23 4-26 7-30 9-27 10-23 13-25 12-19 13-17 8-10 12-13 21-21 11-9 17-13 20-13 17-10 26-13 28-11 25-8 28-7 37-6 21-2 19-1 34-1 24-3 23-5 16-5 20-8 17-9 16-11 10-9 8-7 13-16 9-15 7-15 7-22 3-17 1-12 1-278 4-17 6-14 8-12 9-10 12-10 17-9 19-5z" fill="#F53A52"/>
<path transform="translate(1471,332)" d="m0 0h1l1 41 3 22 5 19 8 19 7 13 9 12 9 11 7 7 14 11 15 10 25 12 21 7 22 5 19 3 9 1 35 1 31 2 30 4 29 6 28 8 25 9 25 11 23 12 21 13 18 13 16 13 13 12 19 19 9 11 13 17 10 15 12 21 11 23 9 23 8 28 6 29 3 27 1 21v189l-4 18-7 16-7 10-9 10-10 9-14 8-13 5-15 3h-20l-15-3-13-5-11-6-10-8-10-10-10-15-6-14-3-13-1-8-1-190-3-24-6-21-9-21-9-14-8-10-9-10-11-10-19-13-23-12-22-8-24-6-19-3-31-2-31-1-30-3-30-5-32-8-30-10-26-11-22-11-23-14-17-12-14-11-14-12-25-25 2-4 11-13 12-16 15-23 9-16 13-26 11-27 8-25 6-24 5-27 3-32z" fill="#0AB6F6"/>
<path transform="translate(1010,78)" d="m0 0h35l25 4 21 6 24 10 13 7 16 11 10 8 10 9 10 10 9 11 11 16 9 16 9 21 6 20 4 23 1 12v23l-3 25-5 21-6 17-10 21-9 14-13 17-9 10-11 11-14 11-15 10-19 10-24 9-20 5-23 3h-28l-23-3-24-6-25-10-18-10-16-11-13-11-16-16-12-16-13-21-8-17-8-24-4-19-2-18v-28l3-23 6-23 6-16 9-19 11-17 9-12 11-12 12-12 14-11 14-9 23-12 16-6 24-6z" fill="#94C745"/>
<path transform="translate(353,141)" d="m0 0h33l24 4 19 6 16 7 16 9 14 10 15 13 10 11 11 15 10 17 7 16 6 19 4 21 1 12v15l-2 21-4 18-6 18-10 21-12 18-11 13-12 12-14 11-14 9-16 8-19 7-16 4-24 3h-20l-22-3-19-5-19-7-17-9-17-12-12-11-13-13-12-16-9-16-8-18-6-19-3-16-1-9v-31l4-24 6-20 8-18 13-21 13-16 13-13 17-13 21-12 20-8 18-5z" fill="#F53A52"/>
<path transform="translate(1679,140)" d="m0 0h12l25 3 20 5 20 8 19 10 14 10 14 12 8 8 9 11 10 15 9 16 8 21 5 20 2 15v32l-4 24-5 17-9 20-9 16-9 12-11 12-14 14-17 12-16 9-20 8-17 5-17 3-14 1h-13l-21-2-22-5-19-7-21-11-14-10-14-12-7-7-9-11-10-14-10-18-8-20-5-20-2-13-1-23 2-23 6-25 6-16 8-16 9-14 11-14 17-17 13-10 18-11 15-7 21-7 19-4z" fill="#0AB6F6"/>
<path transform="translate(1378,15)" d="m0 0h10l14 2 16 5 15 8 11 9 8 8 9 14 6 12 4 15 1 6v238l-3 41-5 30-6 25-8 26-10 25-12 25-10 19-20 30-11 14-9 11-4 2-11-13-13-18-10-16-13-24-11-26-10-30-7-30-3-21-2-24-1-23 1-259 3-16 5-14 9-15 12-13 12-9 15-8 19-5z" fill="#058B41"/>
<path transform="translate(667,15)" d="m0 0h10l14 2 16 5 15 8 13 11 9 10 9 15 5 13 3 16v287l-3 29-5 26-6 24-8 23-11 25-11 21-9 15-13 18-13 16h-4l-9-10-15-20-11-17-12-20-8-16-8-17-11-29-7-22-6-26-5-31-2-18-1-260 4-17 6-14 8-12 9-10 12-10 17-9 19-5z" fill="#892C15"/>
</svg>
